# 3ds Max Wavefront OBJ Exporter v0.97b - (c)2007 guruware
# File Created: 19.03.2021 17:05:06

mtllib Arrow5.mtl

#
# object Arrow5
#

v  5.9870 0.1522 0.5000
v  6.0589 0.0748 0.5000
v  6.0589 0.0748 -0.5000
v  5.9870 0.1522 -0.5000
v  -6.0589 1.2276 0.5000
v  -6.0437 1.3566 0.5000
v  -6.0437 1.3566 -0.5000
v  -6.0589 1.2276 -0.5000
v  -5.9656 1.4543 0.5000
v  -5.9656 1.4543 -0.5000
v  -5.8210 1.4934 0.5000
v  -5.8210 1.4934 -0.5000
v  2.1523 1.4934 0.5000
v  2.1523 1.4934 -0.5000
v  2.1842 2.3489 0.5000
v  2.1842 2.3489 -0.5000
v  2.1623 1.5034 0.5000
v  2.1623 2.3353 0.5000
v  2.1623 2.3353 -0.5000
v  2.1623 1.5034 -0.5000
v  6.0589 -0.0748 0.5000
v  6.0589 -0.0748 -0.5000
v  5.9870 -0.1522 0.5000
v  5.9870 -0.1522 -0.5000
v  -6.0589 -1.2276 -0.5000
v  -6.0589 -1.2276 0.5000
v  -6.0437 -1.3566 -0.5000
v  -6.0437 -1.3566 0.5000
v  -5.9656 -1.4543 -0.5000
v  -5.9656 -1.4543 0.5000
v  -5.8210 -1.4934 -0.5000
v  -5.8210 -1.4934 0.5000
v  2.1523 -1.4934 -0.5000
v  2.1523 -1.4934 0.5000
v  2.1842 -2.3489 0.5000
v  2.1842 -2.3489 -0.5000
v  2.1623 -1.5034 0.5000
v  2.1623 -1.5034 -0.5000
v  2.1623 -2.3353 -0.5000
v  2.1623 -2.3353 0.5000
v  -5.8453 1.2072 -0.5000
v  -5.8453 -1.2072 -0.5000
v  -5.8453 -1.2072 0.5000
v  -5.8453 1.2072 0.5000
v  -5.8317 1.3354 0.5000
v  -5.8317 -1.3354 0.5000
v  2.4380 -0.5075 -0.5000
v  2.4841 -0.4149 -0.5000
v  -5.8317 1.3354 -0.5000
v  2.4841 0.4149 -0.5000
v  2.4841 0.4149 0.5000
v  2.4841 -0.4149 0.5000
v  2.4380 0.5075 0.5000
v  2.4380 -0.5075 0.5000
v  -5.8317 -1.3354 -0.5000
v  2.4380 0.5075 -0.5000
# 56 vertices

vn 0.6234 0.7819 0.0000
vn 0.9308 0.3655 0.0000
vn -0.9983 0.0585 0.0000
vn -0.9226 0.3857 0.0000
vn -0.5480 0.8365 0.0000
vn -0.1316 0.9913 0.0000
vn -0.3827 0.9239 0.0000
vn -0.0168 0.9999 0.0000
vn -0.0168 0.9999 -0.0000
vn -1.0000 0.0000 -0.0000
vn -0.5290 0.8486 -0.0000
vn 0.9308 -0.3655 -0.0000
vn 0.6234 -0.7819 -0.0000
vn -0.9983 -0.0585 -0.0000
vn -0.9226 -0.3857 -0.0000
vn -0.5480 -0.8365 -0.0000
vn -0.1316 -0.9913 -0.0000
vn -0.3827 -0.9239 -0.0000
vn -0.0168 -0.9999 -0.0000
vn -0.5290 -0.8486 -0.0000
vn 0.0000 0.0000 -1.0000
vn -0.0000 0.0000 -1.0000
vn 0.0000 -0.0000 1.0000
vn -0.0000 -0.0000 1.0000
vn 0.0000 0.0000 1.0000
vn 0.0000 -0.0000 -1.0000
vn -0.7071 0.7071 0.0000
vn -0.7071 -0.7071 -0.0000
# 28 vertex normals

vt 0.3871 0.9099 0.0000
vt 0.3934 0.9099 0.0000
vt 0.3934 0.9908 0.0000
vt 0.3871 0.9908 0.0000
vt 0.2369 0.7314 0.0000
vt 0.2474 0.7314 0.0000
vt 0.2474 0.8123 0.0000
vt 0.2369 0.8123 0.0000
vt 0.2553 0.7314 0.0000
vt 0.2553 0.8123 0.0000
vt 0.2670 0.7314 0.0000
vt 0.2670 0.8123 0.0000
vt 0.9123 0.7314 0.0000
vt 0.9123 0.8123 0.0000
vt 0.0793 0.9099 0.0000
vt 0.0793 0.9908 0.0000
vt 0.0102 0.9099 0.0000
vt 0.0775 0.9099 0.0000
vt 0.0775 0.9908 0.0000
vt 0.0102 0.9908 0.0000
vt 0.4055 0.9099 0.0000
vt 0.4055 0.9908 0.0000
vt 0.4117 0.9099 0.0000
vt 0.4117 0.9908 0.0000
vt 0.0382 0.8123 0.0000
vt 0.0382 0.7314 0.0000
vt 0.0277 0.8123 0.0000
vt 0.0277 0.7314 0.0000
vt 0.0198 0.8123 0.0000
vt 0.0198 0.7314 0.0000
vt 0.0081 0.8123 0.0000
vt 0.0081 0.7314 0.0000
vt 0.7246 0.8223 0.0000
vt 0.7246 0.9033 0.0000
vt 0.0793 0.9033 0.0000
vt 0.0793 0.8223 0.0000
vt 0.7195 0.9099 0.0000
vt 0.7195 0.9908 0.0000
vt 0.0785 0.8223 0.0000
vt 0.0785 0.9033 0.0000
vt 0.0112 0.9033 0.0000
vt 0.0112 0.8223 0.0000
vt 0.0094 0.9033 0.0000
vt 0.0094 0.8223 0.0000
vt 0.9870 0.3002 0.0000
vt 0.9697 0.2986 0.0000
vt 0.9697 0.1031 0.0000
vt 0.9870 0.1015 0.0000
vt 0.0062 0.4283 0.0000
vt 0.0235 0.4300 0.0000
vt 0.0235 0.6254 0.0000
vt 0.0062 0.6271 0.0000
vt 0.0075 0.6375 0.0000
vt 0.0246 0.6358 0.0000
vt 0.0075 0.4179 0.0000
vt 0.0246 0.4196 0.0000
vt 0.0120 0.1885 0.0000
vt 0.2993 0.1598 0.0000
vt 0.2956 0.1673 0.0000
vt 0.0062 0.1948 0.0000
vt 0.9858 0.3107 0.0000
vt 0.9686 0.3089 0.0000
vt 0.9131 0.7314 0.0000
vt 0.9131 0.8123 0.0000
vt 0.0062 0.2069 0.0000
vt 0.2956 0.2344 0.0000
vt 0.9870 0.5216 0.0000
vt 0.9870 0.5338 0.0000
vt 0.6977 0.5613 0.0000
vt 0.6977 0.4941 0.0000
vt 0.9812 0.5400 0.0000
vt 0.6940 0.5688 0.0000
vt 0.9812 0.5154 0.0000
vt 0.6940 0.4866 0.0000
vt 0.9686 0.0928 0.0000
vt 0.0120 0.2132 0.0000
vt 0.2993 0.2419 0.0000
vt 0.3216 0.3899 0.0000
vt 0.3198 0.3910 0.0000
vt 0.6734 0.7178 0.0000
vt 0.6716 0.7167 0.0000
vt 0.6716 0.3387 0.0000
vt 0.6734 0.3376 0.0000
vt 0.3198 0.0107 0.0000
vt 0.3216 0.0118 0.0000
vt 0.3216 0.0792 0.0000
vt 0.3224 0.0800 0.0000
vt 0.6716 0.4060 0.0000
vt 0.6708 0.4068 0.0000
vt 0.6716 0.6494 0.0000
vt 0.6708 0.6486 0.0000
vt 0.3216 0.3225 0.0000
vt 0.3224 0.3217 0.0000
vt 0.9858 0.0910 0.0000
vt 0.0255 0.6486 0.0000
vt 0.0138 0.6454 0.0000
vt 0.9795 0.3186 0.0000
vt 0.9678 0.3217 0.0000
vt 0.0138 0.4100 0.0000
vt 0.0255 0.4068 0.0000
vt 0.9678 0.0800 0.0000
vt 0.9795 0.0831 0.0000
# 102 texture coords

g Arrow5
usemtl Arrow5
s 2
f 1/1/1 2/2/2 3/3/2 4/4/1 
f 5/5/3 6/6/4 7/7/4 8/8/3 
f 6/6/4 9/9/5 10/10/5 7/7/4 
f 9/9/5 11/11/6 12/12/6 10/10/5 
f 11/11/6 13/13/7 14/14/7 12/12/6 
f 15/15/8 1/1/1 4/4/1 16/16/9 
s 4
f 17/17/10 18/18/10 19/19/10 20/20/10 
s 2
f 18/18/11 15/15/8 16/16/9 19/19/11 
f 21/21/12 22/22/12 3/3/2 2/2/2 
f 23/23/13 24/24/13 22/22/12 21/21/12 
f 5/5/3 8/8/3 25/25/14 26/26/14 
f 26/26/14 25/25/14 27/27/15 28/28/15 
f 28/28/15 27/27/15 29/29/16 30/30/16 
f 30/30/16 29/29/16 31/31/17 32/32/17 
f 32/33/17 31/34/17 33/35/18 34/36/18 
f 35/37/19 36/38/19 24/24/13 23/23/13 
s 4
f 37/39/10 38/40/10 39/41/10 40/42/10 
s 2
f 40/42/20 39/41/20 36/43/19 35/44/19 
s 1
f 8/45/21 41/46/22 42/47/22 25/48/22 
f 26/49/23 43/50/24 44/51/24 5/52/24 
f 6/53/24 5/52/24 44/51/24 45/54/24 
f 28/55/25 46/56/24 43/50/24 26/49/23 
f 24/57/21 47/58/21 48/59/21 22/60/26 
f 7/61/21 49/62/22 41/46/22 8/45/21 
s 2
f 13/13/7 17/63/27 20/64/27 14/14/7 
f 33/35/18 38/40/28 37/39/28 34/36/18 
s 1
f 3/65/21 22/60/26 48/59/21 50/66/21 
f 21/67/23 2/68/25 51/69/23 52/70/24 
f 51/69/23 2/68/25 1/71/23 53/72/23 
f 23/73/24 21/67/23 52/70/24 54/74/24 
f 47/58/21 55/75/22 42/47/22 48/59/21 
f 4/76/21 3/65/21 50/66/21 56/77/21 
f 56/77/21 19/78/22 16/79/22 4/76/21 
f 53/72/23 1/71/23 15/80/23 18/81/23 
f 54/74/24 40/82/24 35/83/24 23/73/24 
f 47/58/21 24/57/21 36/84/21 39/85/21 
f 38/86/21 33/87/21 47/58/21 39/85/21 
f 37/88/24 40/82/24 54/74/24 34/89/24 
f 17/90/23 13/91/23 53/72/23 18/81/23 
f 20/92/21 19/78/22 56/77/21 14/93/22 
f 50/66/21 48/59/21 42/47/22 41/46/22 
f 52/70/24 51/69/23 44/51/24 43/50/24 
f 44/51/24 51/69/23 53/72/23 45/54/24 
f 54/74/24 52/70/24 43/50/24 46/56/24 
f 56/77/21 50/66/21 41/46/22 49/62/22 
f 27/94/22 25/48/22 42/47/22 55/75/22 
f 45/54/24 11/95/24 9/96/24 6/53/24 
f 49/62/22 7/61/21 10/97/22 12/98/22 
f 46/56/24 28/55/25 30/99/25 32/100/25 
f 55/75/22 31/101/21 29/102/21 27/94/22 
f 45/54/24 53/72/23 13/91/23 11/95/24 
f 46/56/24 32/100/25 34/89/24 54/74/24 
f 55/75/22 47/58/21 33/87/21 31/101/21 
f 49/62/22 12/98/22 14/93/22 56/77/21 
# 54 polygons

